<svg width="134" height="70" viewBox="0 0 134 70" fill="none" xmlns="http://www.w3.org/2000/svg">
<g clip-path="url(#clip0_11260_17613)">
<mask id="mask0_11260_17613" style="mask-type:luminance" maskUnits="userSpaceOnUse" x="0" y="0" width="134" height="70">
<path fill-rule="evenodd" clip-rule="evenodd" d="M0 69.5V0.5H134V69.5H0Z" fill="white"/>
</mask>
<g mask="url(#mask0_11260_17613)">
<path fill-rule="evenodd" clip-rule="evenodd" d="M67 69.5L134 0.5H0V69.5H67Z" fill="url(#paint0_linear_11260_17613)"/>
<path fill-rule="evenodd" clip-rule="evenodd" d="M80.2974 33.8998H77.3904V22.9537H80.2974C84.1723 22.9537 87.2636 24.28 87.2636 28.3549C87.2636 32.5715 84.1723 33.8998 80.2974 33.8998ZM49.0364 41.7045C47.4972 41.7045 46.0549 41.4285 44.8116 40.9455L48.9917 27.3601H49.0699L53.1792 40.9819C51.9434 41.4342 50.5346 41.7045 49.0364 41.7045ZM77.6519 13.5951L64.4604 13.5874V45.8852L52.9382 13.5874H41.5129L31.6751 40.599C30.6272 33.7872 23.7858 31.4354 18.4035 29.6721C14.8506 28.4972 11.0781 26.7684 11.1154 24.8574C11.1433 23.2896 13.1365 21.8329 17.0858 22.0514C19.7397 22.1971 22.081 22.4175 26.7394 24.7309L31.3214 16.5142C27.0688 14.2851 21.1951 12.8764 16.3804 12.8706H16.3507C10.7376 12.8706 6.05872 14.7451 3.15911 17.8329C1.13794 19.9891 0.0473308 22.7261 0.00266409 25.7564C-0.0717803 29.9232 1.41339 32.8806 4.53075 35.24C7.16422 37.2276 10.5328 38.5175 13.5013 39.4644C17.1621 40.6335 20.1511 41.6474 20.1176 43.8152C20.0896 44.6029 19.7993 45.3389 19.2484 45.935C18.3365 46.9049 16.9332 47.269 14.9976 47.3074C11.2624 47.3879 8.48933 46.786 4.07664 44.0989L0.00266409 52.4325C4.40419 55.0124 9.61716 56.5246 14.9344 56.5246L15.6192 56.5169C20.2478 56.4307 23.9849 55.0718 26.9683 52.5974C27.1395 52.4574 27.294 52.3118 27.4522 52.168L26.1289 55.8078H38.1108L40.1226 49.5077C42.2276 50.2494 44.6209 50.6577 47.1651 50.6577C49.6422 50.6577 51.9742 50.2686 54.04 49.5709L55.9774 55.8078H75.5191V42.7668H79.7792C90.0842 42.7668 96.1774 37.3637 96.1774 28.3094C96.1774 18.2239 90.2554 13.5951 77.6519 13.5951Z" fill="#FFFFFE"/>
</g>
</g>
<defs>
<linearGradient id="paint0_linear_11260_17613" x1="0" y1="0.5" x2="0" y2="69.5" gradientUnits="userSpaceOnUse">
<stop stop-color="#00B9F2"/>
<stop offset="1" stop-color="#0072BC"/>
</linearGradient>
<clipPath id="clip0_11260_17613">
<rect width="134" height="69" fill="white" transform="translate(0 0.5)"/>
</clipPath>
</defs>
</svg>
